<?xml version="1.0" standalone="no"?>
<!DOCTYPE svg PUBLIC "-//W3C//DTD SVG 20010904//EN"
 "http://www.w3.org/TR/2001/REC-SVG-20010904/DTD/svg10.dtd">
<svg version="1.0" xmlns="http://www.w3.org/2000/svg"
 width="708.000000pt" height="708.000000pt" viewBox="0 0 708.000000 708.000000"
 preserveAspectRatio="xMidYMid meet">
<metadata>
Created by potrace 1.14, written by Peter Selinger 2001-2017
</metadata>
<g transform="translate(0.000000,708.000000) scale(0.100000,-0.100000)"
fill="#000000" stroke="none">
<path d="M2877 5523 c-4 -3 -7 -303 -7 -665 l0 -658 665 0 665 0 0 665 0 665
-658 0 c-362 0 -662 -3 -665 -7z"/>
<path d="M4540 4865 l0 -665 660 0 660 0 0 665 0 665 -660 0 -660 0 0 -665z"/>
<path d="M3638 3873 c-17 -4 -18 -28 -18 -334 l0 -329 76 0 75 0 -3 225 c-2
124 -1 225 2 225 3 0 103 -101 223 -225 l219 -225 64 0 64 0 0 330 0 330 -75
0 -75 0 0 -225 0 -225 -222 224 c-216 218 -224 225 -268 229 -25 2 -53 2 -62
0z"/>
<path d="M1210 3540 l0 -330 85 0 85 0 0 330 0 330 -85 0 -85 0 0 -330z"/>
<path d="M1600 3540 l0 -330 75 0 75 0 0 228 1 227 222 -228 222 -228 63 1 62
0 0 330 0 330 -76 0 -75 0 3 -225 3 -225 -225 225 -225 225 -63 0 -62 0 0
-330z"/>
<path d="M2525 3802 c1 -37 2 -185 3 -329 l2 -263 80 0 79 0 3 133 3 132 148
3 147 3 0 49 0 50 -150 0 -150 0 0 95 0 95 180 0 180 0 0 50 0 50 -262 0 -263
0 0 -68z"/>
<path d="M3230 3540 l0 -330 85 0 85 0 0 330 0 330 -85 0 -85 0 0 -330z"/>
<path d="M4570 3540 l0 -330 85 0 85 0 0 330 0 330 -85 0 -85 0 0 -330z"/>
<path d="M4890 3820 l0 -50 120 0 120 0 0 -280 0 -280 85 0 85 0 0 280 0 280
125 0 125 0 0 50 0 50 -330 0 -330 0 0 -50z"/>
<path d="M5700 3540 l0 -330 85 0 85 0 0 330 0 330 -85 0 -85 0 0 -330z"/>
</g>
</svg>
